<?xml version="1.0" encoding="UTF-8" standalone="no"?>
<svg
   width="111"
   height="111"
   viewBox="0 0 111 111"
   fill="none"
   version="1.1"
   id="svg6"
   sodipodi:docname="kgz round.svg"
   inkscape:version="1.3 (0e150ed6c4, 2023-07-21)"
   xmlns:inkscape="http://www.inkscape.org/namespaces/inkscape"
   xmlns:sodipodi="http://sodipodi.sourceforge.net/DTD/sodipodi-0.dtd"
   xmlns="http://www.w3.org/2000/svg"
   xmlns:svg="http://www.w3.org/2000/svg">
  <sodipodi:namedview
     id="namedview6"
     pagecolor="#ffffff"
     bordercolor="#000000"
     borderopacity="0.25"
     inkscape:showpageshadow="2"
     inkscape:pageopacity="0.0"
     inkscape:pagecheckerboard="0"
     inkscape:deskcolor="#d1d1d1"
     inkscape:zoom="5.1790794"
     inkscape:cx="79.068106"
     inkscape:cy="52.615529"
     inkscape:window-width="1920"
     inkscape:window-height="1009"
     inkscape:window-x="-8"
     inkscape:window-y="-8"
     inkscape:window-maximized="1"
     inkscape:current-layer="svg6" />
  <g
     clip-path="url(#clip0_5158_360419)"
     id="g6">
    <path
       fill-rule="evenodd"
       clip-rule="evenodd"
       d="M-27.3276 0.0251465H137.834V110.036H-27.3276V0.0251465Z"
       fill="#FF0000"
       id="path1" />
    <path
       fill-rule="evenodd"
       clip-rule="evenodd"
       d="M22.8297 56.1268C25.7629 52.5594 31.8408 56.0476 36.8089 53.4843C30.9159 53.8014 27.7184 50.6567 23.0675 51.1059C27.877 48.1463 31.973 52.0573 37.3638 50.4717C30.2289 49.8904 30.546 46.6928 24.0717 46.2436C29.8325 43.786 32.66 48.7805 38.3152 47.6442C31.6559 46.1115 30.7838 42.2005 25.8422 41.3548C33.0564 40.2714 32.5808 44.5259 39.6629 45.0544C32.4751 41.9891 34.3777 39.2936 28.3526 36.9682C35.0912 36.8096 34.642 41.4605 41.4334 42.6761C35.6197 38.9765 36.3332 35.594 31.5237 32.9514C37.2317 33.0571 37.7866 38.8972 43.6003 40.6942C38.4209 36.5982 39.7686 33.11 35.3026 29.4368C40.9577 30.7581 40.1385 35.8054 46.0315 39.0029C41.6712 34.167 43.3361 30.6788 39.5307 26.6885C44.9745 28.4591 42.9132 33.2421 48.5684 37.7874C45.318 32.4493 47.3263 29.0404 44.1288 24.5216C49.2026 27.1642 46.745 32.0265 51.4488 36.8889C49.229 31.4187 51.4488 28.0098 49.1762 23.1475C53.51 26.3978 50.9467 31.6037 54.4349 36.5982C53.1664 29.7275 56.1261 28.5912 55.2012 22.5925C58.478 26.6357 54.8048 30.6788 57.3153 36.5982C57.051 29.8596 60.6185 28.2741 59.9843 22.8568C63.2611 27.7191 58.1609 31.9473 60.3014 37.1531C60.8299 30.7317 65.058 29.0933 65.1373 24.0988C67.7006 28.6705 62.0984 31.9737 63.0233 38.0516C64.8466 31.3395 69.339 30.5203 69.894 26.0015C71.4267 31.2866 65.2959 33.7706 65.6658 39.6372C67.4892 33.6914 73.0915 32.9779 74.2542 28.5912C74.9413 34.1934 69.4183 35.1976 67.8856 41.3813C70.7924 36.3604 75.8662 35.9111 78.1388 31.9208C77.9538 37.4702 71.7173 38.1837 69.8147 43.3896C73.4086 38.9765 77.901 39.7429 81.4949 35.8318C81.1249 40.8527 74.7827 40.5621 71.4002 45.7415C75.3112 42.1476 81.1778 43.2311 84.1639 40.1392C84.0053 44.5524 76.2361 44.2352 72.5365 48.1727C77.0818 45.7151 82.8162 47.1685 86.1458 44.843C85.5116 48.7276 77.3196 47.8556 73.3557 50.8681C78.773 49.3618 82.9483 51.6609 87.3614 49.9961C85.2209 53.775 77.7688 51.3966 73.805 53.8542C78.5088 53.0615 83.5032 55.889 87.7842 54.9905C86.3837 58.2409 78.2181 54.7791 73.7786 56.8403C79.0637 56.7611 82.4991 60.1436 87.3614 59.9057C84.7188 62.8654 77.531 58.7958 73.3557 59.4829C78.4559 60.54 82.3405 64.7681 86.2251 64.9795C83.054 67.4106 77.1082 61.8612 72.2723 62.5747C77.2403 63.896 81.4156 69.5511 84.2696 69.6833C81.2042 71.7973 75.1263 64.8473 70.9774 65.0852C75.9983 67.3842 78.3238 73.145 81.6534 73.9642C77.5574 75.2855 73.5143 67.7013 69.1012 67.4371C74.2014 70.661 74.4921 75.5762 78.4295 77.7431C74.3071 78.8002 71.3474 70.2118 66.9871 69.4983C71.1888 72.5637 71.7966 79.1437 74.5978 81.2313C70.3696 81.4427 68.8634 72.4844 64.556 71.1895C68.2556 74.2814 67.3571 80.9671 70.2111 83.8475C65.8508 82.949 66.4058 75.127 61.8341 72.4844C65.1109 76.6597 63.4196 82.5526 65.5866 85.8823C61.3056 84.1646 63.1818 77.1618 59.0858 73.1979C61.3056 77.6374 58.9273 82.7905 60.6714 87.0714C56.7868 85.1688 59.4029 76.8975 56.4168 73.5943C57.791 78.7209 55.2541 82.949 56.2847 87.5207C52.2944 82.8962 56.8925 78.2716 53.4307 73.515C54.3292 78.9587 50.5503 82.7112 51.1581 87.2564C47.987 83.5568 52.8493 77.611 50.3917 72.9601C50.9203 78.2716 46.0315 82.9226 46.375 86.2787C43.8117 81.9977 49.229 76.9239 47.7756 72.0352C47.4585 77.1089 42.5433 79.8572 41.6184 84.4553C39.9536 79.3815 45.8201 75.7083 45.318 70.7139C43.6267 75.4705 38.8701 77.3732 37.1788 81.9713C35.8047 76.8975 42.7547 74.2021 42.9397 68.8641C40.7992 73.885 35.0912 74.9684 33.215 78.8002C32.5015 73.7793 40.4821 71.5066 40.7728 66.7236C38.2095 71.3217 31.973 71.4802 29.8061 75.1534C29.4889 70.1325 37.8923 69.4983 39.2136 64.2396C36.6503 68.1506 29.8061 67.6749 26.9785 70.846C27.4277 66.1686 36.4918 65.878 37.9452 61.7027C34.5627 64.9531 28.2998 63.6053 24.7323 66.1951C26.7142 61.597 35.2498 62.5747 37.1524 59.2451C33.4 61.227 26.7142 59.3244 23.411 61.2799C26.4236 56.946 33.0564 59.5358 36.8089 56.5232C30.7045 57.4217 27.0313 54.9905 22.8032 56.1268H22.8297Z"
       fill="#FFFF00"
       id="path2" />
    <path
       fill-rule="evenodd"
       clip-rule="evenodd"
       d="M76.6312 55.0438C76.732 57.9057 76.2553 60.7586 75.2296 63.4323C74.204 66.1061 72.6503 68.5458 70.6613 70.6061C68.6723 72.6664 66.2888 74.3049 63.6528 75.4241C61.0168 76.5432 58.1825 77.12 55.3188 77.12C52.4551 77.12 49.6207 76.5432 46.9847 75.4241C44.3488 74.3049 41.9652 72.6664 39.9762 70.6061C37.9872 68.5458 36.4336 66.1061 35.4079 63.4323C34.3822 60.7586 33.9056 57.9057 34.0064 55.0438C34.2009 49.5213 36.5314 44.2899 40.507 40.4518C44.4826 36.6137 49.7928 34.4688 55.3188 34.4688C60.8447 34.4688 66.1549 36.6137 70.1305 40.4518C74.1061 44.2899 76.4367 49.5213 76.6312 55.0438Z"
       fill="#FFFF00"
       id="path3" />
    <path
       fill-rule="evenodd"
       clip-rule="evenodd"
       d="M73.8834 55.0968C73.8834 57.5294 73.4043 59.9383 72.4733 62.1858C71.5424 64.4333 70.1779 66.4754 68.4577 68.1955C66.7376 69.9157 64.6954 71.2802 62.448 72.2112C60.2005 73.1421 57.7916 73.6212 55.3589 73.6212C52.9263 73.6212 50.5174 73.1421 48.2699 72.2112C46.0224 71.2802 43.9803 69.9157 42.2602 68.1955C40.54 66.4754 39.1755 64.4333 38.2446 62.1858C37.3136 59.9383 36.8345 57.5294 36.8345 55.0968C36.8345 50.1803 38.7875 45.4651 42.264 41.9886C45.7405 38.5122 50.4557 36.5591 55.3722 36.5591C60.2887 36.5591 65.0038 38.5122 68.4803 41.9886C71.9568 45.4651 73.9098 50.1803 73.9098 55.0968H73.8834Z"
       fill="#FF0000"
       id="path4" />
    <path
       fill-rule="evenodd"
       clip-rule="evenodd"
       d="M71.3196 55.1229C71.3196 59.3456 69.6422 63.3953 66.6563 66.3812C63.6705 69.367 59.6207 71.0445 55.3981 71.0445C51.1754 71.0445 47.1257 69.367 44.1399 66.3812C41.154 63.3953 39.4766 59.3456 39.4766 55.1229C39.4766 50.9003 41.154 46.8506 44.1399 43.8647C47.1257 40.8789 51.1754 39.2014 55.3981 39.2014C59.6207 39.2014 63.6705 40.8789 66.6563 43.8647C69.6422 46.8506 71.3196 50.9003 71.3196 55.1229V55.1229Z"
       fill="#FFFF00"
       id="path5" />
    <path
       fill-rule="evenodd"
       clip-rule="evenodd"
       d="M41.856 44.6852C46.2691 44.606 51.7392 45.0023 55.3595 47.9092C59.2375 45.4818 63.8055 44.3955 68.361 44.8174L70.7393 49.1512C67.304 48.8077 63.9479 49.2833 59.984 50.8953C62.3934 52.6728 64.3301 55.0139 65.6247 57.7136C66.9192 60.4133 67.5321 63.3893 67.4097 66.3808C66.8283 67.1207 65.9298 67.9135 65.3485 68.627C66.1941 62.5226 62.9702 55.6784 58.2664 52.0845C62.0717 57.6074 64.3443 62.5491 63.7101 69.3933L61.5432 70.7411C62.5473 64.716 61.1468 57.6603 56.6808 53.5643C58.387 56.0867 59.5781 58.9212 60.1858 61.9052C60.7934 64.8891 60.8057 67.9637 60.2219 70.9525C59.5348 71.1639 58.4778 71.7452 57.7643 71.9566C58.6073 69.1351 58.8359 66.1657 58.4348 63.2483C58.0336 60.331 57.0121 57.5335 55.4388 55.0441C53.8952 57.5167 52.8964 60.2899 52.5091 63.1789C52.1218 66.0679 52.3548 69.0063 53.1926 71.7981L50.92 71.1374C49.7044 64.6631 51.3957 57.396 54.3289 53.5907C51.3428 55.3348 48.5153 62.7605 49.308 70.3447L47.2997 69.4198C46.3219 63.7647 48.8852 56.3919 52.5848 52.1373C48.4095 54.7799 45.0006 61.2278 45.6084 68.1778C44.9742 67.6228 44.3664 67.3321 43.7322 66.7772C42.9923 60.6993 46.5069 54.5949 50.6029 50.9217C47.2179 49.488 43.5402 48.8811 39.874 49.1512C40.5347 47.7506 41.1953 46.1122 41.856 44.7117V44.6852Z"
       fill="#FF0000"
       id="path6" />
  </g>
  <defs
     id="defs6">
    <clipPath
       id="clip0_5158_360419">
      <rect
         x="0.17334"
         y="0.0251465"
         width="110"
         height="110"
         rx="55"
         fill="white"
         id="rect6" />
    </clipPath>
  </defs>
  <rect
     style="fill:#ff0000;fill-opacity:1"
     id="rect7"
     width="74"
     height="67.446495"
     x="19.387453"
     y="21.435425" />
  <circle
     id="circle1009"
     class="cls-2"
     cx="55.228024"
     cy="54.813412"
     r="25.789745"
     style="fill:#ff0000;stroke-width:0px" />
  <path
     id="path1043"
     class="cls-1"
     d="m 55.228022,94.032548 -1.337324,-13.36699 c -0.04574,-0.449241 0.112305,-0.906805 0.457556,-1.197979 0.205906,-0.172624 0.490838,-0.305733 0.879768,-0.299491 0.574028,0.01048 0.921358,0.318213 1.123098,0.619788 0.180946,0.268295 0.251659,0.594823 0.220463,0.917199 L 55.228022,94.030469 Z M 94.447149,54.813417 81.08016,53.476093 c -0.449241,-0.04574 -0.906805,0.112305 -1.19798,0.457556 -0.172625,0.205906 -0.305733,0.490838 -0.29949,0.879768 0.01048,0.574028 0.318212,0.921358 0.619787,1.123098 0.268296,0.180946 0.594824,0.251659 0.9172,0.220463 L 94.44507,54.813417 Z M 93.964634,60.948878 80.97201,57.537976 c -0.436762,-0.114389 -0.913042,-0.03121 -1.254134,0.264139 -0.20382,0.176782 -0.378523,0.43884 -0.432604,0.821528 -0.08111,0.56987 0.170546,0.958795 0.434683,1.206295 0.237101,0.220458 0.549077,0.343165 0.871446,0.359808 z m -1.437158,5.983638 -12.300047,-5.401288 c -0.413882,-0.180946 -0.896398,-0.172625 -1.279085,0.06447 -0.228779,0.143503 -0.443,0.372288 -0.555312,0.744575 -0.168468,0.54907 0.01874,0.973353 0.241258,1.258291 0.199662,0.253737 0.488758,0.424283 0.804892,0.492916 z M 90.173123,72.618736 78.86931,65.36017 c -0.378523,-0.243336 -0.858966,-0.311969 -1.274928,-0.135186 -0.249579,0.106065 -0.494994,0.299495 -0.665541,0.646825 -0.251658,0.515795 -0.135186,0.965036 0.04158,1.281164 0.158067,0.28286 0.415963,0.495001 0.717538,0.611466 l 12.48307,4.854297 z M 86.957726,77.86612 76.928841,68.929139 c -0.336933,-0.299491 -0.798649,-0.442999 -1.23749,-0.332771 -0.262059,0.06447 -0.536596,0.218384 -0.759138,0.536597 -0.330692,0.470036 -0.284932,0.931757 -0.160145,1.272849 0.112317,0.303649 0.33277,0.553228 0.61355,0.717537 l 11.570023,6.746928 z M 82.960312,82.54571 74.453855,72.1487 c -0.284932,-0.349409 -0.719615,-0.56155 -1.170936,-0.522033 -0.268295,0.0229 -0.563626,0.131024 -0.831928,0.409719 -0.399324,0.413889 -0.426362,0.875604 -0.355644,1.231254 0.06239,0.318212 0.243337,0.598987 0.492916,0.804892 z m -4.679588,3.997415 -6.776049,-11.599148 c -0.226699,-0.388929 -0.623944,-0.667625 -1.073187,-0.69882 -0.268295,-0.01874 -0.576106,0.04158 -0.886003,0.274537 -0.459636,0.34525 -0.557391,0.79865 -0.544912,1.160537 0.01248,0.322369 0.145588,0.630182 0.361893,0.871444 z M 73.03334,89.758523 68.156171,77.242176 c -0.16431,-0.420126 -0.511638,-0.757054 -0.95048,-0.858967 -0.262058,-0.06031 -0.576106,-0.04785 -0.919277,0.133108 -0.507474,0.268295 -0.675942,0.700899 -0.719616,1.060708 -0.03952,0.320291 0.04574,0.644749 0.220457,0.917201 z m -5.686219,2.354351 -2.859752,-13.125732 c -0.09567,-0.440919 -0.386847,-0.827766 -0.804887,-0.996232 -0.249578,-0.101921 -0.561555,-0.137268 -0.927599,-0.01247 -0.542833,0.187183 -0.777854,0.586506 -0.875603,0.93592 -0.08943,0.31197 -0.05616,0.644741 0.07487,0.940079 l 5.395051,12.258444 z m -5.983638,1.437158 -0.771611,-13.41067 c -0.02495,-0.45132 -0.251658,-0.877682 -0.638504,-1.110625 -0.230863,-0.139345 -0.532438,-0.22462 -0.91512,-0.158065 -0.565713,0.09984 -0.858966,0.457562 -1.012875,0.786174 -0.135188,0.293255 -0.155983,0.628103 -0.07279,0.94008 z M 16.008887,54.813417 29.375877,53.476093 c 0.449241,-0.04574 0.906805,0.112305 1.197979,0.457556 0.172626,0.205906 0.305733,0.490838 0.299491,0.879768 -0.01048,0.574028 -0.318213,0.921358 -0.619788,1.123098 -0.268295,0.180946 -0.594823,0.251659 -0.917199,0.220463 L 16.010966,54.813417 Z m 0.482516,-6.135467 13.41067,0.771612 c 0.45132,0.02495 0.877682,0.251657 1.110625,0.638503 0.139345,0.230863 0.224621,0.532439 0.158067,0.915121 -0.09984,0.565711 -0.457564,0.858966 -0.786176,1.012875 -0.293254,0.135186 -0.628103,0.155981 -0.940074,0.07279 z m 1.437158,-5.983638 13.125732,2.859753 c 0.440921,0.09567 0.827766,0.386845 0.996233,0.804886 0.10191,0.249579 0.137266,0.561555 0.01248,0.9276 -0.187183,0.542833 -0.586508,0.777853 -0.935922,0.875603 -0.311969,0.08943 -0.644741,0.05616 -0.940078,-0.07487 l -12.258451,-5.39505 z m 2.354352,-5.68622 12.516345,4.877171 c 0.420125,0.164309 0.757054,0.511637 0.858967,0.950479 0.06031,0.262059 0.04785,0.576107 -0.133109,0.919278 -0.268295,0.507474 -0.7009,0.675941 -1.060707,0.719616 -0.320291,0.03952 -0.644746,-0.04574 -0.9172,-0.220458 z m 3.215397,-5.247385 11.599152,6.77605 c 0.388924,0.226699 0.66762,0.623946 0.698814,1.073187 0.01874,0.268296 -0.04158,0.576108 -0.274537,0.886004 -0.345249,0.459636 -0.798649,0.557392 -1.160536,0.544912 -0.322371,-0.01248 -0.630182,-0.145587 -0.871446,-0.361893 z m 3.997415,-4.679587 10.397009,8.506456 c 0.349407,0.284932 0.561549,0.719616 0.522032,1.170936 -0.0229,0.268295 -0.131024,0.563628 -0.40972,0.831929 -0.413888,0.399325 -0.875603,0.426362 -1.231252,0.355645 -0.318213,-0.06239 -0.598988,-0.243337 -0.804892,-0.492916 z m 4.679587,-3.997415 8.936982,10.028885 c 0.299491,0.336934 0.442999,0.798648 0.33277,1.23749 -0.06447,0.262058 -0.218383,0.536597 -0.536596,0.759138 -0.470036,0.330692 -0.931757,0.284933 -1.272849,0.160146 -0.303648,-0.112318 -0.553227,-0.332771 -0.717536,-0.613551 L 32.171155,23.085789 Z m 5.247385,-3.215398 7.258565,11.303813 c 0.243338,0.378525 0.311971,0.858966 0.135188,1.274929 -0.106077,0.249578 -0.299497,0.494995 -0.646825,0.665541 -0.515796,0.251657 -0.965038,0.135187 -1.281165,-0.04158 -0.282859,-0.158067 -0.495001,-0.415961 -0.611466,-0.717536 L 37.422697,19.870403 Z m 5.68622,-2.354351 5.401288,12.300045 c 0.180946,0.413883 0.172624,0.896398 -0.06447,1.279086 -0.143503,0.228778 -0.372287,0.442999 -0.744573,0.555313 -0.549071,0.168467 -0.973353,-0.01874 -1.258292,-0.241258 -0.253742,-0.199662 -0.424282,-0.488758 -0.492921,-0.804892 z m 5.983638,-1.437158 3.410901,12.992623 c 0.114389,0.436763 0.03121,0.913041 -0.264137,1.254133 -0.176783,0.20382 -0.438842,0.37853 -0.821528,0.432604 -0.569872,0.08112 -0.958796,-0.170545 -1.206296,-0.434683 -0.220457,-0.2371 -0.343165,-0.549075 -0.359808,-0.871445 z m 6.135467,-0.482516 1.337319,13.36699 c 0.04574,0.449241 -0.112305,0.906803 -0.457558,1.197979 -0.205905,0.172624 -0.490837,0.305733 -0.879761,0.299491 -0.574035,-0.01048 -0.921363,-0.318213 -1.123104,-0.619788 -0.180947,-0.268295 -0.251658,-0.594823 -0.220462,-0.917199 l 1.343566,-13.325394 z m -6.135467,77.95575 3.410901,-12.992623 c 0.114389,-0.436763 0.03121,-0.913041 -0.264137,-1.254133 -0.176783,-0.20382 -0.438842,-0.378525 -0.821528,-0.432604 -0.569872,-0.08112 -0.958796,0.170545 -1.206296,0.434682 -0.220457,0.237101 -0.343165,0.549076 -0.359808,0.871446 z m -5.983638,-1.437158 5.401288,-12.300045 c 0.180946,-0.413883 0.172624,-0.896399 -0.06447,-1.279086 -0.143503,-0.228778 -0.372287,-0.442999 -0.744573,-0.555313 -0.549071,-0.168469 -0.973353,0.01874 -1.258292,0.241258 -0.253737,0.199662 -0.424278,0.488759 -0.492916,0.804892 z m -5.68622,-2.354351 7.258565,-11.303814 c 0.243338,-0.378524 0.311971,-0.858968 0.135188,-1.274929 -0.106077,-0.24958 -0.299497,-0.494996 -0.646825,-0.665542 -0.515796,-0.251658 -0.965038,-0.135187 -1.281165,0.04158 -0.282859,0.158067 -0.495001,0.415962 -0.611466,0.717537 l -4.854297,12.483074 z m -5.247385,-3.215398 8.936982,-10.028887 c 0.299491,-0.336934 0.442999,-0.798649 0.33277,-1.237491 -0.06447,-0.262057 -0.218383,-0.536596 -0.536596,-0.759137 -0.470036,-0.330692 -0.931757,-0.284933 -1.272849,-0.160146 -0.303648,0.112317 -0.553227,0.332771 -0.717536,0.61355 L 32.171155,86.541041 Z M 27.495725,82.54571 37.892734,74.039251 c 0.349407,-0.284932 0.561549,-0.719615 0.522032,-1.170936 -0.0229,-0.268295 -0.131024,-0.563627 -0.40972,-0.831929 -0.413888,-0.399324 -0.875603,-0.426362 -1.231252,-0.355644 -0.318213,0.06239 -0.598988,0.243337 -0.804892,0.492916 z M 23.49831,77.86612 35.097462,71.09007 c 0.388924,-0.226699 0.66762,-0.623944 0.698814,-1.073187 0.01874,-0.268295 -0.04158,-0.576106 -0.274537,-0.886003 -0.345249,-0.459636 -0.798649,-0.557391 -1.160536,-0.544912 -0.322371,0.01247 -0.630182,0.145588 -0.871446,0.361893 z m -3.215397,-5.247384 12.516345,-4.87717 c 0.420125,-0.16431 0.757054,-0.511638 0.858967,-0.95048 0.06031,-0.262058 0.04785,-0.576106 -0.133109,-0.919277 -0.268295,-0.507474 -0.7009,-0.675942 -1.060707,-0.719616 -0.320291,-0.03952 -0.644746,0.04574 -0.9172,0.220457 z m -2.354352,-5.68622 13.125732,-2.859752 c 0.440921,-0.09567 0.827766,-0.386847 0.996233,-0.804887 0.10191,-0.249578 0.137266,-0.561555 0.01248,-0.927599 -0.187183,-0.542833 -0.586508,-0.777854 -0.935922,-0.875603 -0.311969,-0.08943 -0.644741,-0.05616 -0.940078,0.07487 l -12.258451,5.395054 z m -1.437158,-5.983638 13.41067,-0.771611 c 0.45132,-0.02495 0.877682,-0.251658 1.110625,-0.638504 0.139345,-0.230863 0.224621,-0.532438 0.158067,-0.91512 -0.09984,-0.565713 -0.457564,-0.858966 -0.786176,-1.012875 -0.293254,-0.135188 -0.628103,-0.155983 -0.940074,-0.07279 z m 44.87208,-44.87208 -0.771611,13.41067 c -0.02495,0.45132 -0.251658,0.877682 -0.638504,1.110624 -0.230863,0.139346 -0.532438,0.224621 -0.91512,0.158066 -0.565713,-0.09984 -0.858966,-0.457562 -1.012875,-0.786174 -0.135188,-0.293255 -0.155983,-0.628105 -0.07279,-0.940074 z m 5.983638,1.437158 -2.859752,13.125732 c -0.09567,0.440919 -0.386847,0.827766 -0.804887,0.996232 -0.249578,0.101909 -0.561555,0.137267 -0.927599,0.01248 -0.542833,-0.187184 -0.777854,-0.586507 -0.875603,-0.935921 -0.08943,-0.31197 -0.05616,-0.644741 0.07487,-0.940079 l 5.395051,-12.258444 z m 5.686219,2.354351 -4.877169,12.516345 c -0.16431,0.420126 -0.511638,0.757053 -0.95048,0.858966 -0.262058,0.06032 -0.576106,0.04785 -0.919277,-0.133107 -0.507474,-0.268295 -0.675942,-0.7009 -0.719616,-1.060707 -0.03952,-0.320292 0.04574,-0.644747 0.220457,-0.9172 z m 5.247384,3.215398 -6.776049,11.599152 c -0.226699,0.388924 -0.623944,0.667619 -1.073187,0.698814 -0.268295,0.01874 -0.576106,-0.04158 -0.886003,-0.274537 -0.459636,-0.345251 -0.557391,-0.79865 -0.544912,-1.160537 0.01247,-0.32237 0.145588,-0.630182 0.361893,-0.871445 z m 4.679588,3.997415 -8.506457,10.397008 c -0.284932,0.349408 -0.719615,0.56155 -1.170936,0.522033 -0.268295,-0.0229 -0.563626,-0.131024 -0.831928,-0.40972 -0.399324,-0.413888 -0.426362,-0.875603 -0.355644,-1.231254 0.06239,-0.318211 0.243337,-0.598986 0.492916,-0.804891 z m 3.997414,4.679587 -10.028885,8.936982 c -0.336933,0.299491 -0.798649,0.442999 -1.23749,0.33277 -0.262059,-0.06447 -0.536596,-0.218383 -0.759138,-0.536596 -0.330692,-0.470036 -0.284932,-0.931757 -0.160145,-1.272849 0.112317,-0.303649 0.33277,-0.553227 0.61355,-0.717538 l 11.570023,-6.746927 z m 3.215397,5.247385 -11.303813,7.258565 c -0.378523,0.243338 -0.858966,0.311971 -1.274928,0.135188 -0.249579,-0.106077 -0.494994,-0.299497 -0.665541,-0.646825 -0.251658,-0.515796 -0.135186,-0.965038 0.04158,-1.281165 0.158067,-0.282859 0.415963,-0.495001 0.717538,-0.611466 l 12.483065,-4.854297 z m 2.354353,5.68622 -12.300047,5.401288 c -0.413882,0.180946 -0.896398,0.172624 -1.279085,-0.06447 -0.228779,-0.143503 -0.443,-0.372287 -0.555312,-0.744573 -0.168468,-0.549071 0.01874,-0.973353 0.241258,-1.258292 0.199662,-0.253737 0.488758,-0.424278 0.804892,-0.492916 z m 1.437158,5.983638 -12.992624,3.410901 c -0.436762,0.114389 -0.913042,0.03121 -1.254134,-0.264137 -0.20382,-0.176783 -0.378523,-0.438842 -0.432604,-0.821528 -0.08111,-0.569872 0.170546,-0.958796 0.434683,-1.206296 0.237101,-0.220457 0.549077,-0.343165 0.871446,-0.359808 z"
     style="fill:#ffff00;stroke-width:0px" />
  <circle
     id="circle1015"
     class="cls-1"
     cx="55.228024"
     cy="54.813412"
     r="23.709929"
     style="fill:#ffff00;stroke-width:0px" />
  <g
     id="g26230"
     transform="matrix(0.0473134,0,0,0.0473134,-10.301037,41.754917)">
    <circle
       class="cls-2"
       cx="1385"
       cy="276"
       r="422"
       id="circle26220"
       style="fill:#ff0000;stroke-width:0px" />
    <ellipse
       style="fill:#ffff00;fill-opacity:1;stroke:none;stroke-width:2.84486;stroke-opacity:1;paint-order:markers fill stroke"
       id="ellipse26222"
       cx="1385"
       cy="266.32803"
       rx="378"
       ry="375.31601" />
    <ellipse
       class="cls-3"
       cx="1385"
       cy="251.42729"
       rx="381.38251"
       ry="375.31622"
       id="ellipse26224"
       style="fill:none;stroke-width:0px" />
    <path
       id="path26226"
       style="fill:#ff0000;fill-opacity:1;stroke:#ff0000;stroke-width:3.99874;stroke-dasharray:none;stroke-opacity:1;paint-order:markers fill stroke"
       d="m 1211.8019,-72.044201 -26.0103,-14.944506 -2.3844,34.769398 C 1518.723,34.349538 1683.7495,294.24338 1738.2471,404.7086 l 43.354,-24.15234 -27.8106,-33.3494 C 1690.4298,219.72754 1525.5965,19.319499 1211.8019,-72.044201 Z m -61.0331,45.208838 -37.3846,-10.50254 15.1107,33.2970601 C 1449.8288,87.352408 1630.7552,339.55475 1692.6581,494.84877 l 32.0515,-9.81896 -4.6382,-33.18062 C 1630.1905,271.42395 1483.0191,72.735559 1150.7688,-26.835363 Z m -48.4147,43.588708 -30.3456,-8.5780258 15.0386,28.9666608 c 324.426,119.71571 462.8737,338.47788 539.2996,526.0903 l 40.4369,-5.79506 -6.2433,-26.8434 C 1633.9159,477.00988 1514.0523,147.40095 1102.3541,16.753345 Z M 1589.3644,592.9148 C 1532.3977,441.46797 1392.9745,189.34841 1067.3625,63.30824 l -27.4201,-5.482117 7.1224,31.055925 c 129.6065,32.355842 430.6582,254.758892 502.3866,523.679692 l 38.7185,4.87016 z" />
    <path
       id="path26228"
       style="fill:#ff0000;fill-opacity:1;stroke:#ff0000;stroke-width:3.99874;stroke-dasharray:none;stroke-opacity:1;paint-order:markers fill stroke"
       d="m 1558.1981,-72.044201 26.0103,-14.944506 2.3843,34.769398 C 1251.277,34.349538 1086.2505,294.24338 1031.7529,404.7086 l -43.35397,-24.15234 27.81057,-33.3494 c 63.3607,-127.47932 228.1939,-327.887361 541.9886,-419.251061 z m 61.0331,45.208838 37.3846,-10.50254 -15.1108,33.2970601 C 1320.1712,87.352408 1139.2448,339.55475 1077.3419,494.84877 l -32.0515,-9.81896 4.6382,-33.18062 c 89.8809,-180.42524 237.0522,-379.113631 569.3026,-478.684553 z m 48.4147,43.588708 30.3456,-8.5780258 -15.0386,28.9666608 c -324.426,119.71571 -462.8737,338.47788 -539.2996,526.0903 l -40.4369,-5.79506 6.2433,-26.8434 c 26.6244,-53.58394 146.488,-383.19287 558.1862,-513.840475 z M 1180.6356,592.9148 c 56.9667,-151.44683 196.3899,-403.56639 522.0019,-529.60656 l 27.4201,-5.482117 -7.1225,31.055925 C 1593.3287,121.23789 1292.277,343.64094 1220.5486,612.56174 l -38.7185,4.87016 z" />
  </g>
</svg>
