<?xml version="1.0" encoding="UTF-8" standalone="no"?>
<svg
   height="512"
   width="512"
   version="1.1"
   id="svg7"
   sodipodi:docname="kgz 1x1.svg"
   inkscape:version="1.3 (0e150ed6c4, 2023-07-21)"
   xmlns:inkscape="http://www.inkscape.org/namespaces/inkscape"
   xmlns:sodipodi="http://sodipodi.sourceforge.net/DTD/sodipodi-0.dtd"
   xmlns="http://www.w3.org/2000/svg"
   xmlns:svg="http://www.w3.org/2000/svg">
  <sodipodi:namedview
     id="namedview7"
     pagecolor="#ffffff"
     bordercolor="#000000"
     borderopacity="0.25"
     inkscape:showpageshadow="2"
     inkscape:pageopacity="0.0"
     inkscape:pagecheckerboard="0"
     inkscape:deskcolor="#d1d1d1"
     inkscape:zoom="0.79394531"
     inkscape:cx="111.46863"
     inkscape:cy="360.85609"
     inkscape:window-width="1920"
     inkscape:window-height="1009"
     inkscape:window-x="-8"
     inkscape:window-y="-8"
     inkscape:window-maximized="1"
     inkscape:current-layer="svg7" />
  <defs
     id="defs1">
    <clipPath
       id="a">
      <path
         fill-opacity=".67"
         d="M104.06 0h416.25v416.25H104.06z"
         id="path1" />
    </clipPath>
  </defs>
  <rect
     style="fill:#ff0000;fill-opacity:1;stroke-width:1.00123"
     id="rect7"
     width="512.62976"
     height="512"
     x="0"
     y="0" />
  <circle
     id="circle1009"
     class="cls-2"
     cx="260.60812"
     cy="251.7914"
     r="97.082054"
     style="fill:#ff0000;stroke-width:0px" />
  <path
     id="path1043"
     class="cls-1"
     d="m 260.60813,399.42659 -5.03417,-50.31826 c -0.17225,-1.6911 0.42277,-3.41353 1.72242,-4.50961 0.77509,-0.64983 1.84769,-1.1509 3.31175,-1.12741 2.16086,0.0392 3.46834,1.19787 4.22777,2.3331 0.68114,1.00997 0.94733,2.23915 0.82989,3.45268 l -5.05766,50.16167 z M 408.24332,251.7914 357.92506,246.75723 c -1.6911,-0.17225 -3.41353,0.42277 -4.50961,1.72242 -0.64983,0.77509 -1.1509,1.84769 -1.12741,3.31175 0.0392,2.16086 1.19787,3.46834 2.3331,4.22777 1.00997,0.68114 2.23915,0.94733 3.45268,0.82989 l 50.16167,-5.05766 z m -1.81637,23.09613 -48.909,-12.83988 c -1.64414,-0.43061 -3.43702,-0.11744 -4.72101,0.99431 -0.76726,0.66548 -1.42491,1.65196 -1.62847,3.09253 -0.30534,2.1452 0.64199,3.60926 1.6363,4.54094 0.89253,0.82989 2.06691,1.29181 3.28043,1.35445 z m -5.40998,22.52461 -46.30188,-20.33243 c -1.55801,-0.68114 -3.37438,-0.64982 -4.81495,0.24271 -0.86122,0.54021 -1.66762,1.40142 -2.0904,2.80285 -0.63416,2.06691 0.0705,3.66406 0.90819,4.73666 0.7516,0.95517 1.83986,1.59716 3.0299,1.85552 z m -8.86265,21.40503 -42.55169,-27.32391 c -1.42492,-0.91601 -3.23346,-1.17438 -4.7993,-0.50889 -0.93951,0.39929 -1.86335,1.1274 -2.50535,2.43488 -0.94733,1.94164 -0.50889,3.63274 0.15659,4.82278 0.59502,1.06477 1.56584,1.86335 2.70107,2.30179 l 46.99085,18.27335 z m -12.10394,19.75306 -37.7524,-33.64206 c -1.26833,-1.12741 -3.00641,-1.66762 -4.65837,-1.25267 -0.98648,0.2427 -2.01993,0.82206 -2.85766,2.01993 -1.24484,1.7694 -1.0726,3.50748 -0.60284,4.79147 0.42277,1.14306 1.25267,2.08257 2.30961,2.70107 l 43.55383,25.39792 z m -15.04772,17.6157 -32.02142,-39.13816 c -1.0726,-1.31531 -2.7089,-2.11389 -4.40784,-1.96513 -1.00997,0.0861 -2.12171,0.49324 -3.13168,1.54235 -1.5032,1.55801 -1.60498,3.29609 -1.33879,4.63489 0.23487,1.19786 0.91601,2.2548 1.85552,3.0299 z m -17.6157,15.04772 -25.50752,-43.66344 c -0.85339,-1.46406 -2.34876,-2.51317 -4.03987,-2.63061 -1.00997,-0.0705 -2.16869,0.15658 -3.33524,1.03345 -1.73025,1.29965 -2.09822,3.00642 -2.05125,4.3687 0.047,1.21352 0.54805,2.37224 1.36228,3.28043 z m -19.75306,12.10394 -18.35947,-47.11612 c -0.61851,-1.58149 -1.92599,-2.84982 -3.57795,-3.23346 -0.98648,-0.22704 -2.16868,-0.18007 -3.4605,0.50107 -1.91033,1.00997 -2.54449,2.63844 -2.7089,3.99289 -0.14876,1.2057 0.17224,2.42706 0.82989,3.45268 z m -21.40503,8.86265 -10.76515,-49.41007 c -0.36014,-1.65979 -1.45623,-3.11602 -3.0299,-3.75019 -0.9395,-0.38363 -2.11388,-0.51672 -3.49182,-0.047 -2.04342,0.70463 -2.92812,2.20783 -3.29609,3.52314 -0.33666,1.17438 -0.21139,2.42705 0.28185,3.5388 l 20.30894,46.14529 z m -22.5246,5.40998 -2.90464,-50.48267 c -0.094,-1.69894 -0.94733,-3.30393 -2.40356,-4.1808 -0.86904,-0.52455 -2.00428,-0.84555 -3.44485,-0.59501 -2.12954,0.3758 -3.23346,1.72242 -3.81282,2.95943 -0.5089,1.10392 -0.58719,2.36442 -0.27402,3.5388 z M 112.97294,251.7914 163.2912,246.75723 c 1.6911,-0.17225 3.41353,0.42277 4.50962,1.72242 0.64982,0.77509 1.15089,1.84769 1.1274,3.31175 -0.0392,2.16086 -1.19787,3.46834 -2.3331,4.22777 -1.00997,0.68114 -2.23915,0.94733 -3.45268,0.82989 l -50.16167,-5.05766 z m 1.81637,-23.09613 50.48267,2.90463 c 1.69894,0.0939 3.30393,0.94733 4.1808,2.40356 0.52455,0.86904 0.84555,2.00428 0.59502,3.44485 -0.37581,2.12954 -1.72243,3.23346 -2.95944,3.81282 -1.10392,0.5089 -2.36442,0.58719 -3.5388,0.27402 z m 5.40998,-22.52461 49.41007,10.76515 c 1.65979,0.36014 3.11602,1.45623 3.75019,3.0299 0.38363,0.9395 0.51672,2.11388 0.047,3.49182 -0.70463,2.04342 -2.20783,2.92812 -3.52314,3.29609 -1.17438,0.33666 -2.42705,0.21139 -3.5388,-0.28185 l -46.14532,-20.30894 z m 8.86265,-21.40503 47.11612,18.35947 c 1.5815,0.61851 2.84983,1.92599 3.23346,3.57795 0.22704,0.98648 0.18007,2.16869 -0.50107,3.4605 -1.00997,1.91033 -2.63844,2.54449 -3.99289,2.70891 -1.2057,0.14875 -2.42705,-0.17225 -3.45268,-0.8299 z m 12.10394,-19.75306 43.66344,25.50753 c 1.46406,0.85338 2.51317,2.34875 2.63061,4.03986 0.0705,1.00997 -0.15658,2.16869 -1.03345,3.33524 -1.29965,1.73025 -3.00641,2.09823 -4.36869,2.05125 -1.21353,-0.047 -2.37225,-0.54804 -3.28044,-1.36228 z m 15.04772,-17.6157 39.13816,32.02142 c 1.31531,1.0726 2.11389,2.7089 1.96513,4.40784 -0.0861,1.00997 -0.49324,2.12171 -1.54235,3.13168 -1.55801,1.50321 -3.29609,1.60499 -4.63488,1.33879 -1.19787,-0.23487 -2.25481,-0.91601 -3.0299,-1.85552 z m 17.6157,-15.04772 33.64206,37.7524 c 1.12741,1.26833 1.66762,3.00641 1.25267,4.65837 -0.2427,0.98648 -0.82206,2.01993 -2.01993,2.85766 -1.7694,1.24484 -3.50748,1.0726 -4.79147,0.60284 -1.14306,-0.42277 -2.08256,-1.25267 -2.70107,-2.30961 l -25.39792,-43.55383 z m 19.75307,-12.10394 27.3239,42.55169 c 0.91601,1.42492 1.17438,3.23346 0.50889,4.7993 -0.39928,0.93951 -1.1274,1.86335 -2.43488,2.50535 -1.94164,0.94733 -3.63274,0.50889 -4.82278,-0.15659 -1.06477,-0.59502 -1.86335,-1.56584 -2.30179,-2.70107 l -18.27334,-46.99085 z m 21.40502,-8.86265 20.33243,46.30188 c 0.68114,1.55801 0.64982,3.37438 -0.2427,4.81495 -0.54022,0.86122 -1.40143,1.66762 -2.80286,2.0904 -2.06691,0.63417 -3.66406,-0.0705 -4.73666,-0.90819 -0.95516,-0.7516 -1.59716,-1.83986 -1.85552,-3.0299 z m 22.52461,-5.40998 12.83988,48.90901 c 0.43061,1.64413 0.11744,3.43701 -0.99431,4.721 -0.66548,0.76726 -1.65196,1.42492 -3.09253,1.62847 -2.1452,0.30534 -3.60926,-0.64199 -4.54093,-1.6363 -0.8299,-0.89253 -1.29182,-2.06691 -1.35446,-3.28043 z m 23.09613,-1.81637 5.03418,50.31826 c 0.17224,1.6911 -0.42278,3.41353 -1.72243,4.50961 -0.77509,0.64983 -1.84769,1.1509 -3.31175,1.12741 -2.16086,-0.0392 -3.46833,-1.19787 -4.22777,-2.3331 -0.68114,-1.00997 -0.94733,-2.23915 -0.82989,-3.45268 l 5.05766,-50.16167 z m -23.09613,293.45401 12.83988,-48.909 c 0.43061,-1.64414 0.11744,-3.43702 -0.99431,-4.72101 -0.66548,-0.76726 -1.65196,-1.42492 -3.09253,-1.62847 -2.1452,-0.30534 -3.60926,0.64199 -4.54093,1.6363 -0.8299,0.89253 -1.29182,2.06691 -1.35446,3.28043 z m -22.52461,-5.40998 20.33243,-46.30188 c 0.68114,-1.55801 0.64982,-3.37438 -0.2427,-4.81495 -0.54022,-0.86122 -1.40143,-1.66762 -2.80286,-2.0904 -2.06691,-0.63417 -3.66406,0.0705 -4.73666,0.90819 -0.95516,0.7516 -1.59716,1.83986 -1.85552,3.0299 z m -21.40502,-8.86265 27.3239,-42.55169 c 0.91601,-1.42492 1.17438,-3.23346 0.50889,-4.7993 -0.39928,-0.93951 -1.1274,-1.86335 -2.43488,-2.50535 -1.94164,-0.94733 -3.63274,-0.50889 -4.82278,0.15659 -1.06477,0.59502 -1.86335,1.56584 -2.30179,2.70107 l -18.27334,46.99085 z m -19.75307,-12.10394 33.64206,-37.7524 c 1.12741,-1.26833 1.66762,-3.00641 1.25267,-4.65837 -0.2427,-0.98648 -0.82206,-2.01993 -2.01993,-2.85766 -1.7694,-1.24484 -3.50748,-1.0726 -4.79147,-0.60284 -1.14306,0.42277 -2.08256,1.25267 -2.70107,2.30961 l -25.39792,43.55383 z m -17.6157,-15.04772 39.13816,-32.02142 c 1.31531,-1.0726 2.11389,-2.7089 1.96513,-4.40784 -0.0861,-1.00997 -0.49324,-2.12171 -1.54235,-3.13168 -1.55801,-1.50321 -3.29609,-1.60499 -4.63488,-1.33879 -1.19787,0.23487 -2.25481,0.91601 -3.0299,1.85552 z m -15.04772,-17.6157 43.66344,-25.50752 c 1.46406,-0.85339 2.51317,-2.34876 2.63061,-4.03987 0.0705,-1.00997 -0.15658,-2.16869 -1.03345,-3.33524 -1.29965,-1.73025 -3.00641,-2.09822 -4.36869,-2.05125 -1.21353,0.047 -2.37225,0.54804 -3.28044,1.36228 z m -12.10394,-19.75306 47.11612,-18.35947 c 1.5815,-0.61851 2.84983,-1.92599 3.23346,-3.57795 0.22704,-0.98648 0.18007,-2.16869 -0.50107,-3.4605 -1.00997,-1.91033 -2.63844,-2.54449 -3.99289,-2.70891 -1.2057,-0.14875 -2.42705,0.17225 -3.45268,0.8299 z m -8.86265,-21.40503 49.41007,-10.76515 c 1.65979,-0.36014 3.11602,-1.45623 3.75019,-3.0299 0.38363,-0.9395 0.51672,-2.11388 0.047,-3.49182 -0.70463,-2.04342 -2.20783,-2.92812 -3.52314,-3.29609 -1.17438,-0.33666 -2.42705,-0.21139 -3.5388,0.28185 l -46.14532,20.30894 z m -5.40998,-22.52461 50.48267,-2.90463 c 1.69894,-0.094 3.30393,-0.94733 4.1808,-2.40356 0.52455,-0.86904 0.84555,-2.00428 0.59502,-3.44485 -0.37581,-2.12954 -1.72243,-3.23346 -2.95944,-3.81282 -1.10392,-0.5089 -2.36442,-0.58719 -3.5388,-0.27402 z m 168.91496,-168.91495 -2.90464,50.48267 c -0.094,1.69894 -0.94733,3.30393 -2.40356,4.1808 -0.86904,0.52455 -2.00428,0.84555 -3.44485,0.59501 -2.12954,-0.3758 -3.23346,-1.72242 -3.81282,-2.95943 -0.5089,-1.10392 -0.58719,-2.36442 -0.27402,-3.5388 z m 22.5246,5.40998 -10.76515,49.41007 c -0.36014,1.65979 -1.45623,3.11602 -3.0299,3.75019 -0.9395,0.38363 -2.11388,0.51672 -3.49182,0.047 -2.04342,-0.70463 -2.92812,-2.20783 -3.29609,-3.52314 -0.33666,-1.17438 -0.21139,-2.42705 0.28185,-3.5388 l 20.30894,-46.14529 z m 21.40503,8.86265 -18.35947,47.11612 c -0.61851,1.58149 -1.92599,2.84983 -3.57795,3.23346 -0.98648,0.22704 -2.16868,0.18007 -3.4605,-0.50107 -1.91033,-1.00997 -2.54449,-2.63844 -2.7089,-3.99289 -0.14876,-1.2057 0.17224,-2.42706 0.82989,-3.45268 z m 19.75306,12.10394 -25.50752,43.66344 c -0.85339,1.46406 -2.34876,2.51317 -4.03987,2.63061 -1.00997,0.0705 -2.16869,-0.15658 -3.33524,-1.03345 -1.73025,-1.29965 -2.09822,-3.00641 -2.05125,-4.3687 0.047,-1.21352 0.54805,-2.37224 1.36228,-3.28043 z m 17.6157,15.04772 -32.02142,39.13816 c -1.0726,1.31531 -2.7089,2.11389 -4.40784,1.96513 -1.00997,-0.0861 -2.12171,-0.49324 -3.13168,-1.54235 -1.5032,-1.55801 -1.60498,-3.29609 -1.33879,-4.63489 0.23487,-1.19786 0.91601,-2.2548 1.85552,-3.02989 z m 15.04772,17.6157 -37.7524,33.64206 c -1.26833,1.12741 -3.00641,1.66762 -4.65837,1.25267 -0.98648,-0.2427 -2.01993,-0.82206 -2.85766,-2.01993 -1.24484,-1.7694 -1.0726,-3.50748 -0.60284,-4.79147 0.42277,-1.14306 1.25267,-2.08257 2.30961,-2.70107 l 43.55383,-25.39792 z m 12.10394,19.75306 -42.55169,27.32391 c -1.42492,0.91601 -3.23346,1.17438 -4.7993,0.50889 -0.93951,-0.39929 -1.86335,-1.1274 -2.50535,-2.43488 -0.94733,-1.94164 -0.50889,-3.63274 0.15659,-4.82278 0.59502,-1.06477 1.56584,-1.86335 2.70107,-2.30179 l 46.99085,-18.27335 z m 8.86265,21.40503 -46.30188,20.33243 c -1.55801,0.68114 -3.37438,0.64982 -4.81495,-0.24271 -0.86122,-0.54021 -1.66762,-1.40142 -2.0904,-2.80285 -0.63416,-2.06691 0.0705,-3.66406 0.90819,-4.73666 0.7516,-0.95517 1.83986,-1.59716 3.0299,-1.85552 z m 5.40998,22.52461 -48.909,12.83988 c -1.64414,0.43061 -3.43702,0.11744 -4.72101,-0.99431 -0.76726,-0.66548 -1.42491,-1.65196 -1.62847,-3.09253 -0.30534,-2.1452 0.64199,-3.60926 1.6363,-4.54094 0.89253,-0.82989 2.06691,-1.29181 3.28043,-1.35445 z"
     style="fill:#ffff00;stroke-width:0px" />
  <circle
     id="circle1015"
     class="cls-1"
     cx="260.60812"
     cy="251.7914"
     r="89.252861"
     style="fill:#ffff00;stroke-width:0px" />
  <g
     id="g26230"
     transform="matrix(0.17810498,0,0,0.17810498,13.93273,202.63442)">
    <circle
       class="cls-2"
       cx="1385"
       cy="276"
       r="422"
       id="circle26220"
       style="fill:#ff0000;stroke-width:0px" />
    <ellipse
       style="fill:#ffff00;fill-opacity:1;stroke:none;stroke-width:2.84486;stroke-opacity:1;paint-order:markers fill stroke"
       id="ellipse26222"
       cx="1385"
       cy="266.32803"
       rx="378"
       ry="375.31601" />
    <ellipse
       class="cls-3"
       cx="1385"
       cy="251.42729"
       rx="381.38251"
       ry="375.31622"
       id="ellipse26224"
       style="fill:none;stroke-width:0px" />
    <path
       id="path26226"
       style="fill:#ff0000;fill-opacity:1;stroke:#ff0000;stroke-width:3.99874;stroke-dasharray:none;stroke-opacity:1;paint-order:markers fill stroke"
       d="m 1211.8019,-72.044201 -26.0103,-14.944506 -2.3844,34.769398 C 1518.723,34.349538 1683.7495,294.24338 1738.2471,404.7086 l 43.354,-24.15234 -27.8106,-33.3494 C 1690.4298,219.72754 1525.5965,19.319499 1211.8019,-72.044201 Z m -61.0331,45.208838 -37.3846,-10.50254 15.1107,33.2970601 C 1449.8288,87.352408 1630.7552,339.55475 1692.6581,494.84877 l 32.0515,-9.81896 -4.6382,-33.18062 C 1630.1905,271.42395 1483.0191,72.735559 1150.7688,-26.835363 Z m -48.4147,43.588708 -30.3456,-8.5780258 15.0386,28.9666608 c 324.426,119.71571 462.8737,338.47788 539.2996,526.0903 l 40.4369,-5.79506 -6.2433,-26.8434 C 1633.9159,477.00988 1514.0523,147.40095 1102.3541,16.753345 Z M 1589.3644,592.9148 C 1532.3977,441.46797 1392.9745,189.34841 1067.3625,63.30824 l -27.4201,-5.482117 7.1224,31.055925 c 129.6065,32.355842 430.6582,254.758892 502.3866,523.679692 l 38.7185,4.87016 z" />
    <path
       id="path26228"
       style="fill:#ff0000;fill-opacity:1;stroke:#ff0000;stroke-width:3.99874;stroke-dasharray:none;stroke-opacity:1;paint-order:markers fill stroke"
       d="m 1558.1981,-72.044201 26.0103,-14.944506 2.3843,34.769398 C 1251.277,34.349538 1086.2505,294.24338 1031.7529,404.7086 l -43.35397,-24.15234 27.81057,-33.3494 c 63.3607,-127.47932 228.1939,-327.887361 541.9886,-419.251061 z m 61.0331,45.208838 37.3846,-10.50254 -15.1108,33.2970601 C 1320.1712,87.352408 1139.2448,339.55475 1077.3419,494.84877 l -32.0515,-9.81896 4.6382,-33.18062 c 89.8809,-180.42524 237.0522,-379.113631 569.3026,-478.684553 z m 48.4147,43.588708 30.3456,-8.5780258 -15.0386,28.9666608 c -324.426,119.71571 -462.8737,338.47788 -539.2996,526.0903 l -40.4369,-5.79506 6.2433,-26.8434 c 26.6244,-53.58394 146.488,-383.19287 558.1862,-513.840475 z M 1180.6356,592.9148 c 56.9667,-151.44683 196.3899,-403.56639 522.0019,-529.60656 l 27.4201,-5.482117 -7.1225,31.055925 C 1593.3287,121.23789 1292.277,343.64094 1220.5486,612.56174 l -38.7185,4.87016 z" />
  </g>
</svg>
