<?xml version="1.0" encoding="UTF-8" standalone="no"?>
<svg
   height="480"
   width="640"
   version="1.1"
   id="svg7"
   sodipodi:docname="kgz 4x3.svg"
   inkscape:version="1.3 (0e150ed6c4, 2023-07-21)"
   xmlns:inkscape="http://www.inkscape.org/namespaces/inkscape"
   xmlns:sodipodi="http://sodipodi.sourceforge.net/DTD/sodipodi-0.dtd"
   xmlns="http://www.w3.org/2000/svg"
   xmlns:svg="http://www.w3.org/2000/svg">
  <sodipodi:namedview
     id="namedview7"
     pagecolor="#ffffff"
     bordercolor="#000000"
     borderopacity="0.25"
     inkscape:showpageshadow="2"
     inkscape:pageopacity="0.0"
     inkscape:pagecheckerboard="0"
     inkscape:deskcolor="#d1d1d1"
     inkscape:zoom="1.69375"
     inkscape:cx="319.7048"
     inkscape:cy="240"
     inkscape:window-width="1920"
     inkscape:window-height="1009"
     inkscape:window-x="-8"
     inkscape:window-y="-8"
     inkscape:window-maximized="1"
     inkscape:current-layer="svg7" />
  <defs
     id="defs1">
    <clipPath
       id="a">
      <path
         fill-opacity=".67"
         d="M-84.949 0h682.67v512h-682.67z"
         id="path1" />
    </clipPath>
  </defs>
  <rect
     style="fill:#ff0000;fill-opacity:1;stroke-width:0.99451"
     id="rect7"
     width="640"
     height="480"
     x="0"
     y="0" />
  <ellipse
     id="circle1009"
     class="cls-2"
     cx="328.11246"
     cy="236.71759"
     style="fill:#ff0000;stroke-width:0px"
     rx="82.458366"
     ry="88.670204" />
  <path
     id="path1043"
     class="cls-1"
     d="m 328.11243,371.56066 -4.27587,-45.95834 c -0.14629,-1.54458 0.3591,-3.11776 1.46297,-4.11888 0.65834,-0.59351 1.56937,-1.05117 2.8129,-1.02971 1.83536,0.0357 2.94589,1.09407 3.59093,2.13094 0.57854,0.92246 0.80463,2.04514 0.70488,3.15351 l -4.29581,45.81532 z M 453.509,236.71759 410.77029,232.11961 c -1.43637,-0.15731 -2.89934,0.38615 -3.83032,1.57318 -0.55194,0.70794 -0.97753,1.6876 -0.95758,3.0248 0.0333,1.97363 1.01743,3.16782 1.98166,3.86145 0.85783,0.62212 1.90186,0.86525 2.93259,0.75798 l 42.60571,-4.61943 z m -1.54277,21.09493 -41.54173,-11.72735 c -1.39647,-0.39329 -2.91929,-0.10726 -4.00987,0.90815 -0.65169,0.60782 -1.21028,1.50883 -1.38317,2.82458 -0.25935,1.95933 0.54529,3.29653 1.38982,4.14748 0.75808,0.75798 1.75556,1.17988 2.78629,1.23709 z m -4.59506,20.57292 -39.32732,-18.57069 c -1.32333,-0.62212 -2.8661,-0.59352 -4.08967,0.22168 -0.73149,0.4934 -1.41642,1.27999 -1.77552,2.55999 -0.53864,1.88782 0.0598,3.34658 0.77139,4.32625 0.63838,0.8724 1.56272,1.45877 2.5735,1.69474 z m -7.52765,19.55035 -36.14204,-24.95638 c -1.21027,-0.83664 -2.74639,-1.07262 -4.07637,-0.4648 -0.79798,0.36469 -1.58267,1.02972 -2.12795,2.22391 -0.80464,1.7734 -0.43225,3.31798 0.13299,4.4049 0.50539,0.97252 1.32998,1.7019 2.29421,2.10235 l 39.91251,16.69002 z m -10.2807,18.04152 -32.06566,-30.72708 c -1.07728,-1.02972 -2.55355,-1.52313 -3.95668,-1.14414 -0.83788,0.22168 -1.71566,0.75084 -2.4272,1.84492 -1.05733,1.61608 -0.91103,3.20357 -0.51204,4.3763 0.35909,1.04402 1.06398,1.90212 1.96171,2.46703 l 36.99322,23.19727 z m -12.78105,16.08935 -27.19796,-35.74696 c -0.91103,-1.20134 -2.30085,-1.93072 -3.74387,-1.79486 -0.85784,0.0787 -1.80212,0.4505 -2.65995,1.40872 -1.27678,1.42301 -1.36322,3.01049 -1.13713,4.23328 0.1995,1.09408 0.77804,2.05944 1.57602,2.76737 z m -14.9622,13.74388 -21.66527,-39.88013 c -0.72484,-1.33721 -1.99496,-2.29542 -3.43133,-2.40268 -0.85784,-0.0644 -1.84202,0.14302 -2.83285,0.94391 -1.46962,1.18703 -1.78216,2.74591 -1.74226,3.99016 0.0399,1.10837 0.46549,2.1667 1.15707,2.99619 z m -16.77762,11.05517 -15.59394,-43.03365 c -0.52534,-1.44446 -1.63587,-2.6029 -3.03899,-2.95329 -0.83788,-0.20737 -1.84201,-0.16446 -2.93924,0.45766 -1.62257,0.92245 -2.16121,2.40982 -2.30086,3.64692 -0.12634,1.10122 0.1463,2.21675 0.70489,3.15351 z m -18.18074,8.09474 -9.14357,-45.12885 c -0.30589,-1.51597 -1.23687,-2.84602 -2.5735,-3.42524 -0.79798,-0.35039 -1.79546,-0.47195 -2.96584,-0.0429 -1.73561,0.64357 -2.48705,2.01653 -2.79959,3.21787 -0.28595,1.07262 -0.17955,2.21675 0.23939,3.23217 l 17.24976,42.14695 z m -19.13167,4.94121 -2.4671,-46.1085 c -0.0798,-1.55173 -0.80464,-3.01765 -2.04151,-3.81854 -0.73814,-0.4791 -1.70237,-0.77229 -2.92594,-0.54346 -1.80877,0.34324 -2.7464,1.57318 -3.23849,2.70301 -0.43224,1.00827 -0.49874,2.15955 -0.23274,3.23217 z m -145.01368,-133.18407 42.7387,-4.59798 c 1.43638,-0.15731 2.89935,0.38615 3.83033,1.57318 0.55194,0.70794 0.97753,1.6876 0.95758,3.0248 -0.0333,1.97363 -1.01743,3.16782 -1.98166,3.86145 -0.85783,0.62212 -1.90186,0.86525 -2.93259,0.75798 l -42.60571,-4.61943 z m 1.54277,-21.09492 42.87835,2.65295 c 1.44302,0.0858 2.80625,0.86525 3.55103,2.1953 0.44554,0.79374 0.71819,1.83061 0.50539,3.14637 -0.31919,1.94502 -1.46297,2.95329 -2.51365,3.48245 -0.93763,0.4648 -2.00826,0.53631 -3.00574,0.25028 z m 4.59506,-20.57292 41.96732,9.83238 c 1.40977,0.32894 2.64665,1.33005 3.18528,2.76737 0.32585,0.8581 0.4389,1.93072 0.0399,3.18927 -0.59848,1.86636 -1.87526,2.6744 -2.99244,3.01049 -0.99748,0.30749 -2.06146,0.19307 -3.00574,-0.25743 L 208.85369,195.0426 Z m 7.52765,-19.55035 40.01891,16.76868 c 1.34327,0.56491 2.42055,1.7591 2.74639,3.26793 0.19285,0.901 0.15295,1.98077 -0.42559,3.16066 -0.85783,1.7448 -2.241,2.32402 -3.39143,2.47418 -1.02408,0.13587 -2.06146,-0.15731 -2.93259,-0.75798 z m 10.2807,-18.04153 37.08631,23.29738 c 1.24353,0.77944 2.13461,2.14525 2.23436,3.68983 0.0599,0.92246 -0.133,1.98078 -0.87778,3.04625 -1.10388,1.58033 -2.55355,1.91642 -3.71063,1.87352 -1.03073,-0.0429 -2.01491,-0.50056 -2.7863,-1.24425 z m 12.78104,-16.08935 33.2427,29.24687 c 1.11717,0.97966 1.79546,2.47418 1.66911,4.02591 -0.0731,0.92246 -0.41894,1.93787 -1.31002,2.86033 -1.32333,1.37296 -2.7996,1.46592 -3.93672,1.22279 -1.01743,-0.21452 -1.91517,-0.83665 -2.5735,-1.69474 z m 14.96221,-13.74388 28.57448,34.48127 c 0.95758,1.15843 1.41642,2.74592 1.06398,4.25474 -0.20615,0.901 -0.69824,1.84491 -1.71567,2.61005 -1.50287,1.13698 -2.97914,0.97966 -4.06972,0.55061 -0.97088,-0.38614 -1.76886,-1.14413 -2.2942,-2.10949 l -21.57217,-39.78003 z m 16.77761,-11.05517 23.20805,38.86472 c 0.77803,1.30145 0.99748,2.95329 0.43224,4.38346 -0.33915,0.85809 -0.95758,1.70189 -2.06811,2.28826 -1.64917,0.86525 -3.08554,0.4648 -4.09632,-0.14302 -0.90438,-0.54346 -1.58267,-1.43016 -1.95506,-2.46703 l -15.5208,-42.91924 z m 18.18075,-8.09473 17.2697,42.28996 c 0.57854,1.42302 0.55194,3.08201 -0.20614,4.39776 -0.45884,0.78659 -1.19033,1.52313 -2.38066,1.90927 -1.75556,0.57922 -3.11213,-0.0644 -4.02317,-0.8295 -0.81128,-0.68647 -1.35657,-1.68044 -1.57601,-2.76736 z m 19.13167,-4.94122 10.90578,44.67119 c 0.36574,1.50167 0.0997,3.13921 -0.84453,4.31195 -0.56524,0.70078 -1.40312,1.30145 -2.6267,1.48737 -1.82206,0.27888 -3.06559,-0.58637 -3.85692,-1.49452 -0.70489,-0.8152 -1.09723,-1.88782 -1.15043,-2.9962 z m 19.61711,-1.65899 4.27586,45.95834 c 0.1463,1.54457 -0.35909,3.11776 -1.46297,4.11887 -0.65833,0.59352 -1.56937,1.05117 -2.81289,1.02972 -1.83537,-0.0357 -2.94589,-1.09408 -3.59093,-2.13095 -0.57854,-0.92245 -0.80463,-2.04513 -0.70489,-3.15351 l 4.29582,-45.81532 z m -19.61711,268.02713 10.90578,-44.67118 c 0.36574,-1.50168 0.0997,-3.13922 -0.84453,-4.31195 -0.56524,-0.70078 -1.40312,-1.30145 -2.6267,-1.48737 -1.82206,-0.27888 -3.06559,0.58637 -3.85692,1.49452 -0.70489,0.81519 -1.09723,1.88782 -1.15043,2.99619 z m -19.13167,-4.94121 17.2697,-42.28997 c 0.57854,-1.42301 0.55194,-3.082 -0.20614,-4.39775 -0.45884,-0.7866 -1.19033,-1.52313 -2.38066,-1.90927 -1.75556,-0.57922 -3.11213,0.0643 -4.02317,0.82949 -0.81128,0.68648 -1.35657,1.68044 -1.57601,2.76737 z m -18.18075,-8.09474 23.20805,-38.86472 c 0.77803,-1.30145 0.99748,-2.95329 0.43224,-4.38345 -0.33915,-0.8581 -0.95758,-1.7019 -2.06811,-2.28826 -1.64917,-0.86525 -3.08554,-0.46481 -4.09632,0.14301 -0.90438,0.54347 -1.58267,1.43017 -1.95506,2.46704 l -15.5208,42.91923 z m -16.77761,-11.05517 28.57448,-34.48126 c 0.95758,-1.15844 1.41642,-2.74592 1.06398,-4.25474 -0.20615,-0.90101 -0.69824,-1.84492 -1.71567,-2.61005 -1.50287,-1.13698 -2.97914,-0.97967 -4.06972,-0.55062 -0.97088,0.38615 -1.76886,1.14413 -2.2942,2.1095 l -21.57217,39.78002 z m -14.96221,-13.74388 33.2427,-29.24686 c 1.11717,-0.97967 1.79546,-2.47419 1.66911,-4.02592 -0.0731,-0.92245 -0.41894,-1.93787 -1.31002,-2.86032 -1.32333,-1.37296 -2.7996,-1.46592 -3.93672,-1.2228 -1.01743,0.21453 -1.91517,0.83665 -2.5735,1.69475 z m -12.78104,-16.08935 37.08631,-23.29738 c 1.24353,-0.77944 2.13461,-2.14525 2.23436,-3.68982 0.0599,-0.92246 -0.133,-1.98078 -0.87778,-3.04625 -1.10388,-1.58034 -2.55355,-1.91642 -3.71063,-1.87352 -1.03073,0.0429 -2.01491,0.50056 -2.7863,1.24424 z m -10.2807,-18.04152 40.01891,-16.76868 c 1.34327,-0.56492 2.42055,-1.75911 2.74639,-3.26793 0.19285,-0.901 0.15295,-1.98078 -0.42559,-3.16066 -0.85783,-1.7448 -2.241,-2.32402 -3.39143,-2.47419 -1.02408,-0.13586 -2.06146,0.15732 -2.93259,0.75799 z m -7.52765,-19.55035 41.96732,-9.83238 c 1.40977,-0.32894 2.64665,-1.33006 3.18528,-2.76737 0.32585,-0.8581 0.4389,-1.93073 0.0399,-3.18927 -0.59848,-1.86636 -1.87526,-2.67441 -2.99244,-3.0105 -0.99748,-0.30748 -2.06146,-0.19307 -3.00574,0.25743 l -39.19432,18.54924 z m -4.59506,-20.57292 42.87835,-2.65296 c 1.44302,-0.0858 2.80625,-0.86525 3.55103,-2.1953 0.44554,-0.79374 0.71819,-1.83061 0.50539,-3.14636 -0.31919,-1.94502 -1.46297,-2.95329 -2.51365,-3.48245 -0.93763,-0.4648 -2.00826,-0.53631 -3.00574,-0.25028 z m 143.47091,-154.279 -2.4671,46.10851 c -0.0798,1.55172 -0.80464,3.01764 -2.04151,3.81853 -0.73814,0.47911 -1.70237,0.77229 -2.92594,0.54347 -1.80877,-0.34324 -2.7464,-1.57318 -3.23849,-2.70301 -0.43224,-1.00827 -0.49874,-2.15955 -0.23274,-3.23218 z m 19.13167,4.94122 -9.14357,45.12884 c -0.30589,1.51598 -1.23687,2.84603 -2.5735,3.42525 -0.79798,0.35039 -1.79546,0.47195 -2.96584,0.0429 -1.73561,-0.64357 -2.48705,-2.01653 -2.79959,-3.21787 -0.28595,-1.07262 -0.17955,-2.21676 0.23939,-3.23217 l 17.24976,-42.14695 z m 18.18074,8.09473 -15.59394,43.03365 c -0.52534,1.44447 -1.63587,2.6029 -3.03899,2.95329 -0.83788,0.20737 -1.84201,0.16447 -2.93924,-0.45765 -1.62257,-0.92246 -2.16121,-2.40983 -2.30086,-3.64692 -0.12634,-1.10123 0.1463,-2.21676 0.70489,-3.15351 z m 16.77762,11.05517 -21.66527,39.88014 c -0.72484,1.3372 -1.99496,2.29541 -3.43133,2.40268 -0.85784,0.0643 -1.84202,-0.14302 -2.83285,-0.94391 -1.46962,-1.18704 -1.78216,-2.74592 -1.74226,-3.99016 0.0399,-1.10838 0.46549,-2.1667 1.15707,-2.9962 z m 14.9622,13.74388 -27.19796,35.74697 c -0.91103,1.20133 -2.30085,1.93072 -3.74387,1.79485 -0.85784,-0.0787 -1.80212,-0.4505 -2.65995,-1.40871 -1.27678,-1.42301 -1.36322,-3.0105 -1.13713,-4.23329 0.1995,-1.09407 0.77804,-2.05943 1.57602,-2.76737 z m 12.78105,16.08935 -32.06566,30.72709 c -1.07728,1.02972 -2.55355,1.52312 -3.95668,1.14413 -0.83788,-0.22167 -1.71566,-0.75084 -2.4272,-1.84491 -1.05733,-1.61609 -0.91103,-3.20357 -0.51204,-4.3763 0.35909,-1.04402 1.06398,-1.90212 1.96171,-2.46704 l 36.99322,-23.19727 z m 10.2807,18.04153 -36.14204,24.95637 c -1.21027,0.83665 -2.74639,1.07262 -4.07637,0.4648 -0.79798,-0.36469 -1.58267,-1.02971 -2.12795,-2.2239 -0.80464,-1.77341 -0.43225,-3.31798 0.13299,-4.40491 0.50539,-0.97251 1.32998,-1.70189 2.29421,-2.10234 l 39.91251,-16.69002 z m 7.52765,19.55035 -39.32732,18.57069 c -1.32333,0.62212 -2.8661,0.59351 -4.08967,-0.22168 -0.73149,-0.49341 -1.41642,-1.28 -1.77552,-2.55999 -0.53864,-1.88782 0.0598,-3.34659 0.77139,-4.32625 0.63838,-0.8724 1.56272,-1.45877 2.5735,-1.69475 z m 4.59506,20.57292 -41.54173,11.72735 c -1.39647,0.39329 -2.91929,0.10726 -4.00987,-0.90816 -0.65169,-0.60782 -1.21028,-1.50882 -1.38317,-2.82457 -0.25935,-1.95933 0.54529,-3.29653 1.38982,-4.14748 0.75808,-0.75799 1.75556,-1.17989 2.78629,-1.23709 z"
     style="fill:#ffff00;stroke-width:0px" />
  <ellipse
     id="circle1015"
     class="cls-1"
     cx="328.11246"
     cy="236.71759"
     style="fill:#ffff00;stroke-width:0px"
     rx="75.808502"
     ry="81.519379" />
  <g
     id="g26230"
     transform="matrix(0.15127663,0,0,0.16267274,118.59431,191.81992)">
    <circle
       class="cls-2"
       cx="1385"
       cy="276"
       r="422"
       id="circle26220"
       style="fill:#ff0000;stroke-width:0px" />
    <ellipse
       style="fill:#ffff00;fill-opacity:1;stroke:none;stroke-width:2.84486;stroke-opacity:1;paint-order:markers fill stroke"
       id="ellipse26222"
       cx="1385"
       cy="266.32803"
       rx="378"
       ry="375.31601" />
    <ellipse
       class="cls-3"
       cx="1385"
       cy="251.42729"
       rx="381.38251"
       ry="375.31622"
       id="ellipse26224"
       style="fill:none;stroke-width:0px" />
    <path
       id="path26226"
       style="fill:#ff0000;fill-opacity:1;stroke:#ff0000;stroke-width:3.99874;stroke-dasharray:none;stroke-opacity:1;paint-order:markers fill stroke"
       d="m 1211.8019,-72.044201 -26.0103,-14.944506 -2.3844,34.769398 C 1518.723,34.349538 1683.7495,294.24338 1738.2471,404.7086 l 43.354,-24.15234 -27.8106,-33.3494 C 1690.4298,219.72754 1525.5965,19.319499 1211.8019,-72.044201 Z m -61.0331,45.208838 -37.3846,-10.50254 15.1107,33.2970601 C 1449.8288,87.352408 1630.7552,339.55475 1692.6581,494.84877 l 32.0515,-9.81896 -4.6382,-33.18062 C 1630.1905,271.42395 1483.0191,72.735559 1150.7688,-26.835363 Z m -48.4147,43.588708 -30.3456,-8.5780258 15.0386,28.9666608 c 324.426,119.71571 462.8737,338.47788 539.2996,526.0903 l 40.4369,-5.79506 -6.2433,-26.8434 C 1633.9159,477.00988 1514.0523,147.40095 1102.3541,16.753345 Z M 1589.3644,592.9148 C 1532.3977,441.46797 1392.9745,189.34841 1067.3625,63.30824 l -27.4201,-5.482117 7.1224,31.055925 c 129.6065,32.355842 430.6582,254.758892 502.3866,523.679692 l 38.7185,4.87016 z" />
    <path
       id="path26228"
       style="fill:#ff0000;fill-opacity:1;stroke:#ff0000;stroke-width:3.99874;stroke-dasharray:none;stroke-opacity:1;paint-order:markers fill stroke"
       d="m 1558.1981,-72.044201 26.0103,-14.944506 2.3843,34.769398 C 1251.277,34.349538 1086.2505,294.24338 1031.7529,404.7086 l -43.35397,-24.15234 27.81057,-33.3494 c 63.3607,-127.47932 228.1939,-327.887361 541.9886,-419.251061 z m 61.0331,45.208838 37.3846,-10.50254 -15.1108,33.2970601 C 1320.1712,87.352408 1139.2448,339.55475 1077.3419,494.84877 l -32.0515,-9.81896 4.6382,-33.18062 c 89.8809,-180.42524 237.0522,-379.113631 569.3026,-478.684553 z m 48.4147,43.588708 30.3456,-8.5780258 -15.0386,28.9666608 c -324.426,119.71571 -462.8737,338.47788 -539.2996,526.0903 l -40.4369,-5.79506 6.2433,-26.8434 c 26.6244,-53.58394 146.488,-383.19287 558.1862,-513.840475 z M 1180.6356,592.9148 c 56.9667,-151.44683 196.3899,-403.56639 522.0019,-529.60656 l 27.4201,-5.482117 -7.1225,31.055925 C 1593.3287,121.23789 1292.277,343.64094 1220.5486,612.56174 l -38.7185,4.87016 z" />
  </g>
</svg>
