<?xml version="1.0" encoding="UTF-8" standalone="no"?>
<svg
   id="ain"
   width="640"
   height="480"
   viewBox="0 0 640 480"
   version="1.1"
   sodipodi:docname="ain2.svg"
   inkscape:version="1.3.2 (091e20e, 2023-11-25)"
   xmlns:inkscape="http://www.inkscape.org/namespaces/inkscape"
   xmlns:sodipodi="http://sodipodi.sourceforge.net/DTD/sodipodi-0.dtd"
   xmlns="http://www.w3.org/2000/svg"
   xmlns:svg="http://www.w3.org/2000/svg">
  <defs
     id="defs1" />
  <sodipodi:namedview
     id="namedview1"
     pagecolor="#ffffff"
     bordercolor="#000000"
     borderopacity="0.25"
  />
  <style
     type="text/css"
     id="style1">
	.st0{fill:#04003F;}
	.st1{fill:#F58220;}
	.st2{fill:#FFFFFF;}
</style>
  <rect
     id="rect1"
     width="640"
     height="480"
     fill="white" />
  <g
     id="layer1"
     transform="matrix(0.79025424,0,0,0.79027737,128.13559,46.779657)">
    <g
       id="SYMBOL_1_"
       transform="translate(-10.842929,1.2047346)">
      <circle
         id="Light_Blue_circle_2_"
         class="st1"
         cx="247.3"
         cy="247.3"
         r="247.3" />
      <circle
         id="Dark_Blue_Circle_3_"
         class="st0"
         cx="247.3"
         cy="247.3"
         r="191.3" />
      <path
         id="Blue_Sun_Fans_3_"
         class="st1"
         d="m 240,207.9 c -7.5,-19.3 -37.7,-40.8 -58.1,-45.1 -43.4,-9 -39,-45.4 -39,-45.4 10.1,22.8 34.1,33.7 36.5,26.3 0.6,-1.9 -8.9,-11.3 -9.8,-17.3 -0.9,-6 6.3,-11.5 11.3,-9.6 13.7,5.1 4,25.4 20.7,33.9 22.2,10.2 41.8,35.7 38.4,57.2 z m -70.3,186.8 c 25.7,-31.8 39.1,-33.3 41.2,-31.7 5.8,4.4 0.8,11.6 -0.5,14.2 -3.3,6.8 -2,15.5 7,16.7 6.6,0.9 11.4,-7.7 9.5,-16.1 -3.3,-14.6 11.1,-15.1 10.1,-7.8 -2.7,19.7 10,35.9 21.3,43.6 -6.8,-15.5 -9.1,-42.1 3.3,-46.6 11.8,-4.3 3.3,18.6 7.7,24.2 1.9,2.5 7.9,4.2 12,1.7 8.9,-5.6 -5.9,-30 0.8,-31.6 12.1,-2.4 4.1,22.3 32.7,38.4 -5.4,-16.4 -13.9,-41.5 -6.4,-46.6 5.9,-2.8 7.1,8.9 13.2,14 9.6,7.9 23.1,-5.3 14.8,-10.8 -9.2,-6 -16.1,-13.9 -14.4,-17.7 5,-11 23.1,0.4 39.2,30.3 6.3,-27.1 -11.7,-44.9 -31.1,-53.9 -13.3,-6.2 -26.5,-22.3 -29.3,-25.2 -11.1,-11.6 -15.6,-6.7 -35.7,-19 -4,-4.3 -7.2,-24.8 -1.4,-32.4 11.5,13.2 53.9,16.8 51.6,11 -5,-12.8 16.5,-14.2 23.3,-5 6.9,9.4 2.3,20.3 -14.5,18.6 -10.8,-1.1 -10.9,4.9 -10.6,7.6 1.1,12.4 16.7,24.5 26.7,29.8 21,11 48.2,7.8 63.3,4.3 -10.5,-3.6 -20.4,-6.3 -30.2,-12.4 -18.6,-11.7 -15.8,-17.3 -13.2,-21.1 2.6,-3.8 11.7,-4.1 22.4,-0.1 19.1,7.2 25.6,-28.1 4.9,-21.1 -9.2,3.1 -21.7,4.8 -23,-5.3 0.3,-18.2 36.3,-9.6 42.6,-40.9 -15.3,14.4 -43.4,16.3 -49.6,8.5 -4.4,-5.6 3.2,-10.1 12.8,-9.8 19.6,0.5 15.4,-27.1 -2.3,-20.6 -11.2,4.1 -16,15.6 -19.9,13.8 -6.9,-3.2 -3.8,-34.4 26.4,-55.5 -31.6,-5 -41.1,32.9 -50.2,25.1 -8.2,-7.1 -2.5,-22.1 5.5,-29.4 10.5,-9.5 -7.1,-27.4 -18,-9.6 -6.4,10.5 0.3,25.4 -9.1,24.9 -12.4,-0.8 11.2,-47.7 -21.1,-66.5 9.3,20.7 6.4,56.1 -11.1,50.6 -11.5,-3.6 -4.9,-12.2 -2.3,-22.7 4.3,-17.2 -20.1,-16.5 -19,-3.5 1.1,13.1 2.9,23.1 -4.1,23.6 -10.6,0.7 -17.9,-25.9 -2.2,-51 -29.5,11.3 -27.7,51.1 -15.4,60.8 17.9,14.1 34.1,41.6 30.4,68 -8.5,12.6 -28.2,18.8 -28.2,18.8 -0.6,-9.3 -17.9,-46.3 -64.4,-50 -39,-3.1 -47,-36.2 -47,-36.2 -1.9,9.2 -5.4,29.5 23.4,41.4 5.8,2.4 -2.3,10.3 -11.4,2.5 -16.9,-14.4 -29.3,6.5 -14.4,12.3 5.1,2 23.8,6.6 30,15.2 14.6,20.1 32.2,35.8 76.5,22 19.2,-6 35.1,-17 35.1,-17 0,0 14.3,-18.4 26.4,-7.1 3.7,3.5 4.7,12.8 -2.1,19.3 -6.9,6.6 -15.6,4.4 -18.2,-0.1 -0.7,-1.1 -4.8,0.4 -7.2,8.7 -2.4,8.3 -5.8,28.4 17.3,47 3.2,2.6 -29.4,-1.9 -35.2,-33 -5.7,4.2 -17.9,7.8 -26.3,8.8 7.6,18 9.6,56.7 -14.1,78.8 -19.9,18.2 -23.9,37.6 -28.3,52.8 z M 136,286.5 c 0.2,8.7 -33.5,13.1 -35.4,39.5 -0.2,2.4 19.3,-16.7 41.9,-16.3 6.8,0.1 8.9,7.9 6.9,11.5 -3.1,5.5 -20,1.6 -23.6,10.8 -3,7.4 6.9,13.2 13.9,11.9 9.5,-1.7 8.7,-8.4 34.2,-19 19.4,-8.1 27.4,-35.4 20.8,-60.8 0,0 -35,-1.6 -54.1,-22 -19.2,-20.4 -57.8,-17 -57.8,-17 23.5,11.8 44.5,25 46.4,31.2 3.2,10.6 -8.4,3.9 -20.4,6.3 -14.9,3 -11,20.2 -0.9,21.1 9.2,0.9 27.7,-13.3 28.1,2.8 z" />
      <path
         id="FIGURES_1_"
         class="st2"
         d="m 257.6,210.4 c -8.5,12.6 -28.2,18.8 -28.2,18.8 -0.6,-9.3 -17.9,-46.3 -64.4,-50 v 0 c 5,-6.1 10.7,-11.5 16.9,-16.4 20.5,4.3 50.6,25.8 58.1,45.1 3.4,-21.5 -16.2,-47 -38.5,-57.2 v 0 c 8,-3.8 16.6,-6.7 25.6,-8.4 18,14.1 34.2,41.7 30.5,68.1 z M 173.9,325 c 7.1,6.7 15,12.4 23.7,17 23.7,-22.1 21.7,-60.8 14.1,-78.8 8.5,-1 20.6,-4.6 26.3,-8.8 5.8,31.1 38.5,35.6 35.2,33 -23.1,-18.6 -19.7,-38.7 -17.3,-47 2.4,-8.3 6.6,-9.9 7.2,-8.7 2.6,4.6 11.4,6.7 18.2,0.1 6.9,-6.6 5.9,-15.9 2.1,-19.3 -12.1,-11.3 -26.4,7.1 -26.4,7.1 0,0 -16,11.1 -35.1,17 -44.3,13.8 -61.9,-2 -76.5,-22 v 0 c -2.8,8.8 -4.6,18.1 -5,27.7 v 0 c 19.1,20.4 54.1,22 54.1,22 6.8,25.3 -1.2,52.6 -20.6,60.7 z m 139.5,-54.4 c -0.2,-2.7 -0.2,-8.7 10.6,-7.6 16.9,1.7 21.5,-9.2 14.5,-18.6 -6.8,-9.2 -28.3,-7.9 -23.3,5 2.3,5.8 -40.2,2.2 -51.6,-11 -5.8,7.6 -2.6,28.1 1.4,32.4 20.1,12.3 24.5,7.5 35.7,19 2.8,3 16.1,19 29.3,25.2 3.7,-4.6 7.1,-9.5 10.1,-14.6 -10,-5.3 -25.6,-17.3 -26.7,-29.8 z" />
      <path
         id="TM"
         class="st2"
         d="m 380.8,331 v 10.8 H 379 V 331 h -2.9 v -1.6 h 7.6 v 1.6 z m 12.1,10.9 v -7.1 l 0.1,-2.2 v 0 l -2.3,9.2 h -1.9 l -2.2,-9.2 h -0.1 l 0.1,2.3 v 6.9 h -1.8 v -12.4 h 2.4 l 2.5,10.4 v 0 l 2.7,-10.4 h 2.3 v 12.4 h -1.8 z" />
    </g>
  </g>
</svg>
